<?xml version="1.0" encoding="UTF-8"?>
<svg version="1.1" xmlns="http://www.w3.org/2000/svg" width="512" height="512">
<path d="M0 0 C0.92167969 -0.00128906 1.84335937 -0.00257812 2.79296875 -0.00390625 C3.76363281 -0.00003906 4.73429688 0.00382812 5.734375 0.0078125 C6.68957031 0.00394531 7.64476562 0.00007813 8.62890625 -0.00390625 C10.01916016 -0.00197266 10.01916016 -0.00197266 11.4375 0 C12.28473633 0.00112793 13.13197266 0.00225586 14.00488281 0.00341797 C16.58233992 0.13792489 18.95958707 0.61581234 21.484375 1.1328125 C22.99257813 1.09027344 22.99257813 1.09027344 24.53125 1.046875 C30.08679781 1.16764778 35.31009659 2.35974882 40.734375 3.5078125 C42.88522129 3.9540677 45.03626192 4.39938733 47.1875 4.84375 C48.75467773 5.16811035 48.75467773 5.16811035 50.35351562 5.49902344 C58.35607952 7.34723221 58.35607952 7.34723221 66.484375 8.1328125 C66.484375 8.7928125 66.484375 9.4528125 66.484375 10.1328125 C67.33386719 10.25527344 68.18335938 10.37773438 69.05859375 10.50390625 C84.93764129 13.41898795 100.15135597 21.29102348 113.85546875 29.55078125 C116.22386859 30.97604416 118.61661585 32.3169579 121.046875 33.6328125 C126.31756405 36.54913126 131.64394051 39.54093868 136.484375 43.1328125 C136.484375 43.7928125 136.484375 44.4528125 136.484375 45.1328125 C137.3196875 45.473125 137.3196875 45.473125 138.171875 45.8203125 C141.30163037 47.59666014 143.25538976 49.2846647 145.484375 52.1328125 C146.1090257 57.66543296 145.22156076 61.81906782 143.484375 67.1328125 C143.33049316 67.78757568 143.17661133 68.44233887 143.01806641 69.11694336 C142.11913334 72.51241013 140.43375158 75.57148544 138.859375 78.6953125 C138.32195679 79.76386475 138.32195679 79.76386475 137.77368164 80.85400391 C134.70416741 86.86561602 131.28058228 92.5496518 127.484375 98.1328125 C126.85015625 99.08800781 126.2159375 100.04320312 125.5625 101.02734375 C122.00329306 106.28526309 122.00329306 106.28526309 120.484375 108.1328125 C119.824375 108.1328125 119.164375 108.1328125 118.484375 108.1328125 C118.21109375 108.72610352 117.9378125 109.31939453 117.65625 109.93066406 C115.81095527 113.3982804 113.14823548 116.02418864 110.484375 118.8828125 C109.9378125 119.48480469 109.39125 120.08679688 108.828125 120.70703125 C107.42434589 122.22435132 105.95853737 123.6837779 104.484375 125.1328125 C103.824375 125.1328125 103.164375 125.1328125 102.484375 125.1328125 C102.154375 126.1228125 101.824375 127.1128125 101.484375 128.1328125 C99.62684193 129.70544786 97.69856332 131.19560153 95.734375 132.6328125 C94.68765625 133.40625 93.6409375 134.1796875 92.5625 134.9765625 C85.22162384 140.11890214 85.22162384 140.11890214 81.171875 140.1953125 C77.12466788 139.02916808 74.92768026 137.4638257 71.69140625 134.87109375 C60.33979169 125.93044157 47.42612646 119.92515818 33.546875 116.1953125 C32.76634766 115.98374512 31.98582031 115.77217773 31.18164062 115.55419922 C26.15700492 114.2937494 21.66196462 113.938432 16.484375 114.1328125 C16.484375 113.4728125 16.484375 112.8128125 16.484375 112.1328125 C-10.6807372 112.14067784 -10.6807372 112.14067784 -34.515625 122.1328125 C-35.84157387 122.49440408 -37.1760162 122.82566895 -38.515625 123.1328125 C-41.01088345 124.33819694 -43.45011187 125.57608106 -45.890625 126.8828125 C-46.53773438 127.21796875 -47.18484375 127.553125 -47.8515625 127.8984375 C-51.13968621 129.64856786 -54.0394145 131.46383998 -56.8671875 133.8984375 C-59.515625 136.1328125 -59.515625 136.1328125 -61.515625 136.1328125 C-61.515625 136.7928125 -61.515625 137.4528125 -61.515625 138.1328125 C-62.485 138.7721875 -63.454375 139.4115625 -64.453125 140.0703125 C-69.86871312 143.7901104 -73.56819027 148.95400329 -77.515625 154.1328125 C-78.12535156 154.9165625 -78.73507813 155.7003125 -79.36328125 156.5078125 C-87.92004013 168.04676753 -93.65656104 181.35685163 -97.515625 195.1328125 C-97.70108887 195.76388916 -97.88655273 196.39496582 -98.07763672 197.04516602 C-99.9884417 204.33298643 -99.91271479 211.70520158 -99.890625 219.1953125 C-99.89008118 219.88634064 -99.88953735 220.57736877 -99.88897705 221.28933716 C-99.85092024 231.79164694 -99.11253082 241.17988365 -95.515625 251.1328125 C-95.07412588 252.46959218 -94.6340743 253.80685062 -94.1953125 255.14453125 C-89.35757721 269.36592116 -82.10487532 282.63625193 -71.34375 293.28125 C-69.515625 295.1328125 -69.515625 295.1328125 -68.515625 297.1328125 C-66.75626235 298.19791685 -64.9439816 299.10657463 -63.109375 300.03515625 C-61.515625 301.1328125 -61.515625 301.1328125 -60.515625 304.1328125 C-58.76970233 305.16743334 -57.01927929 306.19720002 -55.2265625 307.1484375 C-53.33801469 308.23499925 -52.04695573 309.60148177 -50.515625 311.1328125 C-49.525625 311.1328125 -48.535625 311.1328125 -47.515625 311.1328125 C-47.185625 311.7928125 -46.855625 312.4528125 -46.515625 313.1328125 C-44.35049202 314.45609995 -44.35049202 314.45609995 -41.765625 315.6953125 C-40.90453125 316.12972656 -40.0434375 316.56414062 -39.15625 317.01171875 C-36.57959844 318.10565218 -34.25284327 318.60726659 -31.515625 319.1328125 C-30.05993139 319.73652026 -28.62137106 320.38322803 -27.203125 321.0703125 C-19.51467969 324.55929346 -12.94807918 325.44384565 -4.515625 325.1328125 C-4.185625 325.7928125 -3.855625 326.4528125 -3.515625 327.1328125 C0.02602415 327.1620192 3.56764197 327.17968064 7.109375 327.1953125 C8.10839844 327.20369141 9.10742188 327.21207031 10.13671875 327.22070312 C17.37079767 327.2939822 17.37079767 327.2939822 24.484375 326.1328125 C25.144375 325.4728125 25.804375 324.8128125 26.484375 324.1328125 C26.484375 324.7928125 26.484375 325.4528125 26.484375 326.1328125 C27.83982422 325.6996875 27.83982422 325.6996875 29.22265625 325.2578125 C30.40214844 324.8865625 31.58164062 324.5153125 32.796875 324.1328125 C33.96863281 323.7615625 35.14039063 323.3903125 36.34765625 323.0078125 C39.484375 322.1328125 39.484375 322.1328125 42.484375 322.1328125 C42.484375 321.4728125 42.484375 320.8128125 42.484375 320.1328125 C43.45375 320.0090625 44.423125 319.8853125 45.421875 319.7578125 C46.4325 319.5515625 47.443125 319.3453125 48.484375 319.1328125 C48.814375 318.4728125 49.144375 317.8128125 49.484375 317.1328125 C50.165 317.0503125 50.845625 316.9678125 51.546875 316.8828125 C55.31779688 315.92002393 57.54768184 313.95591023 60.51953125 311.5078125 C62.57214929 310.07138794 64.06782914 309.66658769 66.484375 309.1328125 C69.25792729 307.43471926 71.80499288 305.81219462 74.109375 303.5078125 C76.70247846 300.91470904 78.83783589 300.18669076 82.484375 299.8828125 C86.50120843 300.21754862 88.46085875 301.095975 91.28515625 303.95703125 C93.58648264 306.23383196 96.00467923 308.19225692 98.546875 310.1953125 C106.62443746 316.74819449 113.98178351 324.00457313 120.484375 332.1328125 C121.71256229 333.48786749 122.94179623 334.8419743 124.171875 336.1953125 C126.7406556 339.11137459 128.11805133 341.48928271 129.484375 345.1328125 C130.98186611 347.1627449 132.53976813 349.1241939 134.14453125 351.0703125 C135.68808887 353.4464012 135.93956028 355.37072859 136.484375 358.1328125 C137.84285379 360.60083983 137.84285379 360.60083983 139.484375 363.0078125 C142.07574448 367.17493159 143.03624543 370.20338721 143.484375 375.1328125 C144.02292387 376.6622913 144.58708014 378.18291201 145.171875 379.6953125 C146.31708397 382.95860213 146.51432504 383.98578505 145.796875 387.5078125 C143.59077222 391.92001807 141.69595927 393.70089446 137.39257812 396.04394531 C134.33106703 397.79091812 131.56205146 399.91082053 128.734375 402.0078125 C113.45445258 413.1328125 113.45445258 413.1328125 108.484375 413.1328125 C108.154375 413.7928125 107.824375 414.4528125 107.484375 415.1328125 C105.55859375 416.1328125 105.55859375 416.1328125 103.171875 417.1328125 C100.85676887 418.11242765 98.59679856 419.07274203 96.37890625 420.2578125 C94.484375 421.1328125 94.484375 421.1328125 91.484375 421.1328125 C91.154375 421.7928125 90.824375 422.4528125 90.484375 423.1328125 C88.8238354 423.49543784 87.15550174 423.82261205 85.484375 424.1328125 C83.50990127 424.87853428 81.54841167 425.65911378 79.59765625 426.46484375 C72.41961539 429.27364235 65.18123282 431.12655917 57.671875 432.8203125 C56.69131638 433.04584808 56.69131638 433.04584808 55.69094849 433.27593994 C46.97700672 435.27811349 38.32342543 436.9899381 29.41796875 437.84375 C26.583059 438.0610637 26.583059 438.0610637 24.2487793 438.64257812 C20.89975124 439.2364886 17.72191542 439.26256404 14.3203125 439.265625 C13.64642487 439.26658173 12.97253723 439.26753845 12.27822876 439.26852417 C10.86126613 439.26920164 9.44430033 439.26737768 8.02734375 439.26318359 C5.8593044 439.25781233 3.69147061 439.2631518 1.5234375 439.26953125 C0.14322871 439.26887072 -1.23697995 439.26759008 -2.6171875 439.265625 C-4.49398193 439.26393311 -4.49398193 439.26393311 -6.40869141 439.26220703 C-9.515625 439.1328125 -9.515625 439.1328125 -12.515625 438.1328125 C-15.11940611 437.81492579 -17.71932716 437.5264879 -20.328125 437.2578125 C-27.1851366 436.51409555 -33.75558782 435.34182748 -40.46484375 433.71875 C-43.52285724 433.0256838 -43.52285724 433.0256838 -46.72265625 433.171875 C-49.515625 433.1328125 -49.515625 433.1328125 -52.515625 431.1328125 C-53.505625 431.1328125 -54.495625 431.1328125 -55.515625 431.1328125 C-55.515625 430.4728125 -55.515625 429.8128125 -55.515625 429.1328125 C-56.485 429.0296875 -57.454375 428.9265625 -58.453125 428.8203125 C-63.65624721 428.08762794 -68.81324473 426.48400264 -73.515625 424.1328125 C-74.505625 423.7203125 -75.495625 423.3078125 -76.515625 422.8828125 C-80.46912989 421.20257292 -84.27505656 419.26151687 -88.10546875 417.3203125 C-90.06381684 416.35542138 -92.06605711 415.47999898 -94.078125 414.6328125 C-101.54182075 411.37592708 -109.16068509 407.25582552 -115.515625 402.1328125 C-115.515625 401.4728125 -115.515625 400.8128125 -115.515625 400.1328125 C-116.7840625 399.8234375 -116.7840625 399.8234375 -118.078125 399.5078125 C-121.70669209 398.05638566 -123.74371769 396.43113733 -126.58984375 393.84375 C-128.69738096 391.97133358 -130.89588311 390.275274 -133.140625 388.5703125 C-136.52830178 385.96352392 -139.53146404 383.19986682 -142.515625 380.1328125 C-143.299375 379.5346875 -144.083125 378.9365625 -144.890625 378.3203125 C-149.19651333 374.73207223 -152.63228006 370.37734689 -156.2265625 366.09375 C-156.75507813 365.46726562 -157.28359375 364.84078125 -157.828125 364.1953125 C-158.29863281 363.62941406 -158.76914063 363.06351562 -159.25390625 362.48046875 C-160.49512973 360.99835866 -160.49512973 360.99835866 -162.515625 360.1328125 C-163.50695279 358.41451099 -164.49481706 356.6939644 -165.453125 354.95703125 C-166.90280026 352.46806675 -168.67816324 350.34857521 -170.515625 348.1328125 C-171.60820902 346.74420818 -172.69100651 345.34786621 -173.765625 343.9453125 C-174.28640625 343.27113281 -174.8071875 342.59695313 -175.34375 341.90234375 C-176.515625 340.1328125 -176.515625 340.1328125 -176.515625 338.1328125 C-177.175625 337.8028125 -177.835625 337.4728125 -178.515625 337.1328125 C-179.57044757 335.37286398 -180.56195117 333.57456115 -181.515625 331.7578125 C-183.09097554 328.77252323 -184.64164201 325.94378699 -186.515625 323.1328125 C-186.94875 322.0190625 -186.94875 322.0190625 -187.390625 320.8828125 C-188.33600037 318.57189493 -189.36476939 316.63723348 -190.640625 314.5078125 C-192.515625 311.1328125 -192.515625 311.1328125 -192.515625 308.1328125 C-193.175625 307.8028125 -193.835625 307.4728125 -194.515625 307.1328125 C-195.19140625 305.41796875 -195.19140625 305.41796875 -195.828125 303.1953125 C-197.20860782 298.73529107 -199.13959267 294.84486981 -201.4296875 290.78515625 C-202.58195525 287.97080444 -202.88228756 285.4053384 -203.18896484 282.39672852 C-203.81932995 278.02798742 -205.23377515 273.8471962 -206.515625 269.6328125 C-209.07573108 261.21585996 -210.73014099 253.54641695 -210.453125 244.69921875 C-210.50803649 242.44441565 -210.72589942 240.32404259 -211.0078125 238.08984375 C-211.66061711 232.47699278 -211.66593117 226.90283393 -211.640625 221.2578125 C-211.63724121 220.1651709 -211.63385742 219.0725293 -211.63037109 217.94677734 C-211.51260586 199.18376371 -210.0084954 182.48835462 -204.5480957 164.47900391 C-204.28730225 163.60421387 -204.02650879 162.72942383 -203.7578125 161.828125 C-203.5191748 161.04453613 -203.28053711 160.26094727 -203.03466797 159.45361328 C-202.4742193 156.94767487 -202.42556305 154.69249785 -202.515625 152.1328125 C-201.855625 152.1328125 -201.195625 152.1328125 -200.515625 152.1328125 C-200.45375 151.3696875 -200.391875 150.6065625 -200.328125 149.8203125 C-199.36104054 145.43123685 -197.61610899 141.75416589 -195.671875 137.71875 C-194.49020996 135.29382666 -194.49020996 135.29382666 -194.06640625 133.22265625 C-193.23026828 130.05007602 -191.68830633 127.2284868 -190.203125 124.3203125 C-189.88625732 123.69374756 -189.56938965 123.06718262 -189.24291992 122.42163086 C-187.11827569 118.24575601 -184.90125759 114.16370895 -182.515625 110.1328125 C-182.16628906 109.49472656 -181.81695312 108.85664063 -181.45703125 108.19921875 C-178.7340716 103.2420358 -178.7340716 103.2420358 -176.515625 102.1328125 C-176.226875 101.3903125 -175.938125 100.6478125 -175.640625 99.8828125 C-174.34423938 96.71386986 -172.7238734 94.75883763 -170.515625 92.1328125 C-169.2786302 90.59741983 -168.05003779 89.05523485 -166.828125 87.5078125 C-166.22613281 86.75242187 -165.62414062 85.99703125 -165.00390625 85.21875 C-163.34456625 83.10893239 -163.34456625 83.10893239 -162.515625 80.1328125 C-161.54625 79.3284375 -160.576875 78.5240625 -159.578125 77.6953125 C-156.53211705 75.49730939 -156.53211705 75.49730939 -155.5546875 73.18359375 C-154.32130895 70.74929399 -152.91495255 69.50435187 -150.828125 67.7578125 C-150.12042969 67.15710938 -149.41273438 66.55640625 -148.68359375 65.9375 C-147.61044922 65.04417969 -147.61044922 65.04417969 -146.515625 64.1328125 C-145.22156695 63.05233684 -143.92971264 61.96921341 -142.640625 60.8828125 C-142.08632812 60.42390625 -141.53203125 59.965 -140.9609375 59.4921875 C-139.26132657 57.99625852 -139.26132657 57.99625852 -137.515625 55.1328125 C-136.71125 54.6584375 -135.906875 54.1840625 -135.078125 53.6953125 C-132.46000677 52.31606631 -132.46000677 52.31606631 -131.015625 50.1328125 C-129.14814317 47.64283673 -127.22009702 46.66944433 -124.515625 45.1328125 C-122.68169294 43.81776835 -120.87029468 42.47700989 -119.06640625 41.12109375 C-117.515625 40.1328125 -117.515625 40.1328125 -115.515625 40.1328125 C-115.515625 39.4728125 -115.515625 38.8128125 -115.515625 38.1328125 C-112.88828471 36.3462211 -110.25753244 34.73192199 -107.515625 33.1328125 C-106.48566406 32.51921875 -105.45570313 31.905625 -104.39453125 31.2734375 C-91.77430807 23.88179713 -78.71804751 17.94664307 -64.953125 13.0078125 C-64.19837891 12.73066406 -63.44363281 12.45351563 -62.66601562 12.16796875 C-61.93447266 11.90628906 -61.20292969 11.64460938 -60.44921875 11.375 C-59.78978271 11.1363623 -59.13034668 10.89772461 -58.45092773 10.65185547 C-56.515625 10.1328125 -56.515625 10.1328125 -52.515625 10.1328125 C-52.515625 9.4728125 -52.515625 8.8128125 -52.515625 8.1328125 C-51.21238281 8.00777344 -49.90914062 7.88273437 -48.56640625 7.75390625 C-43.84884288 7.22911768 -39.31691805 6.28839857 -34.703125 5.1953125 C-24.95263917 2.96674517 -15.55761037 0.94334108 -5.515625 1.1328125 C-3.91427964 -0.46853286 -2.2130719 0.00296205 0 0 Z M141.484375 68.1328125 C142.484375 70.1328125 142.484375 70.1328125 142.484375 70.1328125 Z " fill="#A3AFF8" transform="translate(277.515625,35.8671875)"/>
<path d="M0 0 C2.03833424 1.2739589 4.03852126 2.61061923 6 4 C6 4.66 6 5.32 6 6 C7.093125 6.598125 8.18625 7.19625 9.3125 7.8125 C11.95526262 9.30669778 13.85609086 10.85609086 16 13 C16.99 13 17.98 13 19 13 C19.495 13.99 19.495 13.99 20 15 C22.16513298 16.32328745 22.16513298 16.32328745 24.75 17.5625 C25.61109375 17.99691406 26.4721875 18.43132812 27.359375 18.87890625 C29.93602656 19.97283968 32.26278173 20.47445409 35 21 C36.45569361 21.60370776 37.89425394 22.25041553 39.3125 22.9375 C47.00094531 26.42648096 53.56754582 27.31103315 62 27 C62.33 27.66 62.66 28.32 63 29 C66.54164915 29.0292067 70.08326697 29.04686814 73.625 29.0625 C75.12353516 29.07506836 75.12353516 29.07506836 76.65234375 29.08789062 C83.88642267 29.1611697 83.88642267 29.1611697 91 28 C91.66 27.34 92.32 26.68 93 26 C93 26.66 93 27.32 93 28 C94.35544922 27.566875 94.35544922 27.566875 95.73828125 27.125 C96.91777344 26.75375 98.09726562 26.3825 99.3125 26 C101.07013672 25.443125 101.07013672 25.443125 102.86328125 24.875 C106 24 106 24 109 24 C109 23.34 109 22.68 109 22 C109.969375 21.87625 110.93875 21.7525 111.9375 21.625 C112.948125 21.41875 113.95875 21.2125 115 21 C115.33 20.34 115.66 19.68 116 19 C116.680625 18.9175 117.36125 18.835 118.0625 18.75 C121.83342188 17.78721143 124.06330684 15.82309773 127.03515625 13.375 C129.08777429 11.93857544 130.58345414 11.53377519 133 11 C135.77355229 9.30190676 138.32061788 7.67938212 140.625 5.375 C143.21810346 2.78189654 145.35346089 2.05387826 149 1.75 C153.01683343 2.08473612 154.97648375 2.9631625 157.80078125 5.82421875 C160.10210764 8.10101946 162.52030423 10.05944442 165.0625 12.0625 C173.14006246 18.61538199 180.49740851 25.87176063 187 34 C188.22818729 35.35505499 189.45742123 36.7091618 190.6875 38.0625 C193.2562806 40.97856209 194.63367633 43.35647021 196 47 C197.49749111 49.0299324 199.05539313 50.9913814 200.66015625 52.9375 C202.20371387 55.3135887 202.45518528 57.23791609 203 60 C204.35847879 62.46802733 204.35847879 62.46802733 206 64.875 C208.59136948 69.04211909 209.55187043 72.07057471 210 77 C210.53854887 78.5294788 211.10270514 80.05009951 211.6875 81.5625 C212.83270897 84.82578963 213.02995004 85.85297255 212.3125 89.375 C210.10639722 93.78720557 208.21158427 95.56808196 203.90820312 97.91113281 C200.84669203 99.65810562 198.07767646 101.77800803 195.25 103.875 C179.97007758 115 179.97007758 115 175 115 C174.67 115.66 174.34 116.32 174 117 C172.07421875 118 172.07421875 118 169.6875 119 C167.37239387 119.97961515 165.11242356 120.93992953 162.89453125 122.125 C161 123 161 123 158 123 C157.67 123.66 157.34 124.32 157 125 C155.3394604 125.36262534 153.67112674 125.68979955 152 126 C150.02552627 126.74572178 148.06403667 127.52630128 146.11328125 128.33203125 C138.93524039 131.14082985 131.69685782 132.99374667 124.1875 134.6875 C123.53379425 134.83785706 122.8800885 134.98821411 122.20657349 135.14312744 C113.49263172 137.14530099 104.83905043 138.8571256 95.93359375 139.7109375 C93.098684 139.9282512 93.098684 139.9282512 90.7644043 140.50976562 C87.41537624 141.1036761 84.23754042 141.12975154 80.8359375 141.1328125 C80.16204987 141.13376923 79.48816223 141.13472595 78.79385376 141.13571167 C77.37689113 141.13638914 75.95992533 141.13456518 74.54296875 141.13037109 C72.3749294 141.12499983 70.20709561 141.1303393 68.0390625 141.13671875 C66.65885371 141.13605822 65.27864505 141.13477758 63.8984375 141.1328125 C62.64724121 141.13168457 61.39604492 141.13055664 60.10693359 141.12939453 C57 141 57 141 54 140 C51.39621889 139.68211329 48.79629784 139.3936754 46.1875 139.125 C39.3304884 138.38128305 32.76003718 137.20901498 26.05078125 135.5859375 C22.99276776 134.8928713 22.99276776 134.8928713 19.79296875 135.0390625 C17 135 17 135 14 133 C13.01 133 12.02 133 11 133 C11 132.34 11 131.68 11 131 C9.5459375 130.8453125 9.5459375 130.8453125 8.0625 130.6875 C2.85937779 129.95481544 -2.29761973 128.35119014 -7 126 C-7.99 125.5875 -8.98 125.175 -10 124.75 C-13.95350489 123.06976042 -17.75943156 121.12870437 -21.58984375 119.1875 C-23.54819184 118.22260888 -25.55043211 117.34718648 -27.5625 116.5 C-35.02619575 113.24311458 -42.64506009 109.12301302 -49 104 C-49 103.34 -49 102.68 -49 102 C-50.2684375 101.690625 -50.2684375 101.690625 -51.5625 101.375 C-55.23342733 99.90662907 -57.41539651 98.17272293 -60.2890625 95.53515625 C-62.11273688 93.89884567 -64.02327974 92.44585434 -66 91 C-62.57090179 68.32700739 -49.60367298 47.18079174 -35 30 C-34.46375 29.34 -33.9275 28.68 -33.375 28 C-29.66253218 23.48047395 -25.48874931 19.73674813 -21 16 C-20.14019531 15.27554687 -19.28039062 14.55109375 -18.39453125 13.8046875 C-12.47059041 8.87503292 -6.38846451 4.30978842 0 0 Z " fill="#4B45FB" transform="translate(211,334)"/>
<path d="M0 0 C1.04953857 0.31364502 2.09907715 0.62729004 3.18041992 0.95043945 C10.83002796 3.47209559 16.18661403 7.20644279 22.1875 12.5 C23.06833252 13.20350586 23.94916504 13.90701172 24.85668945 14.63183594 C30.30735685 19.00059125 34.45056979 24.51130991 37.9921875 30.4921875 C38.81486922 31.87407771 39.67705893 33.23295546 40.5703125 34.5703125 C43.26418178 38.61881319 44.68543218 41.57973537 45.1875 46.5 C45.51078495 47.83548095 45.84385046 49.16861087 46.18359375 50.5 C49.46142324 65.07713386 49.03211906 84.47528937 41.36328125 97.62890625 C40.15529056 99.35145686 38.89918285 101.04224184 37.578125 102.6796875 C35.98514324 104.38309688 35.98514324 104.38309688 36.1875 106.5 C35.5275 106.5 34.8675 106.5 34.1875 106.5 C33.94 107.056875 33.6925 107.61375 33.4375 108.1875 C29.78443432 114.94567151 24.48813886 119.34157835 18.1875 123.5 C17.259375 124.345625 16.33125 125.19125 15.375 126.0625 C12.42406236 128.55188073 9.5854966 129.61621111 5.8984375 130.67578125 C3.07359504 131.49141981 3.07359504 131.49141981 -0.0234375 132.79296875 C-7.5178682 135.69482532 -14.12641061 136.97377167 -22.1875 137 C-23.00710205 137.00604248 -23.8267041 137.01208496 -24.67114258 137.01831055 C-32.21526598 136.86347716 -38.71192038 134.63112984 -45.5 131.4375 C-47.95089701 130.30501656 -50.13686546 129.41028189 -52.75 128.6875 C-57.58583087 126.81238191 -61.84223824 123.82685966 -65.8125 120.5 C-65.8125 119.84 -65.8125 119.18 -65.8125 118.5 C-66.43125 118.2525 -67.05 118.005 -67.6875 117.75 C-70.16318687 116.29371361 -70.76375002 115.12187494 -71.8125 112.5 C-72.4725 112.5 -73.1325 112.5 -73.8125 112.5 C-78.80920707 107.63833907 -82.0743223 101.46813351 -85.1875 95.3125 C-85.53312988 94.63574219 -85.87875977 93.95898438 -86.23486328 93.26171875 C-86.55696777 92.60429687 -86.87907227 91.946875 -87.2109375 91.26953125 C-87.49630371 90.68792236 -87.78166992 90.10631348 -88.07568359 89.50708008 C-90.60525364 82.6165581 -90.03323672 75.0469474 -90.05273438 67.81494141 C-90.06244222 65.63795787 -90.09351688 63.46191903 -90.125 61.28515625 C-90.19487944 52.20603886 -89.57522988 45.0874019 -84.25 37.375 C-82.57023991 34.83279592 -81.65645443 33.02319409 -80.6875 30.0625 C-80.39875 29.216875 -80.11 28.37125 -79.8125 27.5 C-78.8225 27.17 -77.8325 26.84 -76.8125 26.5 C-75.70413577 24.61683841 -75.70413577 24.61683841 -74.8125 22.5 C-74.1525 21.51 -73.4925 20.52 -72.8125 19.5 C-72.1525 19.5 -71.4925 19.5 -70.8125 19.5 C-70.60625 18.943125 -70.4 18.38625 -70.1875 17.8125 C-67.18886004 12.76933279 -61.66378213 9.59656306 -56.8125 6.5 C-56.04164063 6.00757813 -55.27078125 5.51515625 -54.4765625 5.0078125 C-49.86594954 2.39828669 -44.8620165 1.03680937 -39.8125 -0.5 C-38.84828125 -0.80421875 -37.8840625 -1.1084375 -36.890625 -1.421875 C-23.68464202 -5.20521066 -12.9188091 -3.9666416 0 0 Z " fill="#4B45FC" transform="translate(305.8125,189.5)"/>
<path d="M0 0 C1.98 0.99 3.96 1.98 6 3 C6 3.66 6 4.32 6 5 C7.175625 5.4640625 7.175625 5.4640625 8.375 5.9375 C11 7 11 7 13 8 C13 8.66 13 9.32 13 10 C14.2684375 10.12375 14.2684375 10.12375 15.5625 10.25 C19 11 19 11 22.125 12.9375 C30.27070696 17.75485358 40.25816911 17.20737883 49.4375 17.3125 C50.8771814 17.33908691 50.8771814 17.33908691 52.34594727 17.36621094 C57.55637663 17.36071035 60.63328754 17.06298176 65 14 C67.67578125 13.48828125 67.67578125 13.48828125 70.3125 13.3125 C71.19550781 13.24675781 72.07851563 13.18101562 72.98828125 13.11328125 C73.65214844 13.07589844 74.31601562 13.03851563 75 13 C66.78539731 19.86563607 55.98286182 21.4661571 45.625 21.5 C44.80580078 21.50604248 43.98660156 21.51208496 43.14257812 21.51831055 C35.59793511 21.36354473 29.10106277 19.13135715 22.3125 15.9375 C19.86160299 14.80501656 17.67563454 13.91028189 15.0625 13.1875 C10.22666913 11.31238191 5.97026176 8.32685966 2 5 C2 4.34 2 3.68 2 3 C1.34 3 0.68 3 0 3 C0 2.01 0 1.02 0 0 Z " fill="#241DA8" transform="translate(238,305)"/>
<path d="M0 0 C0.66 0 1.32 0 2 0 C1.28657381 3.368957 0.05630184 6.31032233 -1.375 9.4375 C-1.79523438 10.36433594 -2.21546875 11.29117188 -2.6484375 12.24609375 C-4 15 -4 15 -5.6015625 17.22265625 C-9.36947781 24.70586235 -8.27142676 34.91768899 -8.5625 43.125 C-8.60568359 44.27226562 -8.64886719 45.41953125 -8.69335938 46.6015625 C-8.79833646 49.40095143 -8.90049465 52.20041215 -9 55 C-8.34 55 -7.68 55 -7 55 C-6.75765625 55.95261719 -6.5153125 56.90523438 -6.265625 57.88671875 C-5.76289063 59.76810547 -5.76289063 59.76810547 -5.25 61.6875 C-4.76273438 63.54955078 -4.76273438 63.54955078 -4.265625 65.44921875 C-2.9827485 69.04840003 -1.46842866 71.13521796 1 74 C1.33 74.99 1.66 75.98 2 77 C2.99 77.66 3.98 78.32 5 79 C3.02 79.99 3.02 79.99 1 81 C-0.35125512 78.6758412 -1.68019057 76.34208958 -3 74 C-3.59039062 72.96101563 -4.18078125 71.92203125 -4.7890625 70.8515625 C-5.41554687 69.72492188 -6.04203125 68.59828125 -6.6875 67.4375 C-7.28949219 66.36371094 -7.89148438 65.28992188 -8.51171875 64.18359375 C-11.86450871 57.01161522 -11.21931404 49.07464345 -11.24023438 41.31494141 C-11.24994222 39.13795787 -11.28101688 36.96191903 -11.3125 34.78515625 C-11.38237944 25.70603886 -10.76272988 18.5874019 -5.4375 10.875 C-3.34585623 7.69042525 -2.07587754 4.67591491 -1 1 C-0.67 0.67 -0.34 0.34 0 0 Z " fill="#3D34CD" transform="translate(227,216)"/>
<path d="M0 0 C0.91523438 -0.00128906 1.83046875 -0.00257812 2.7734375 -0.00390625 C3.72734375 -0.00003906 4.68125 0.00382812 5.6640625 0.0078125 C7.08332031 0.00201172 7.08332031 0.00201172 8.53125 -0.00390625 C9.4490625 -0.00261719 10.366875 -0.00132813 11.3125 0 C12.14700684 0.00112793 12.98151367 0.00225586 13.84130859 0.00341797 C16.40616711 0.13900295 18.77620475 0.61914153 21.2890625 1.1328125 C22.28035156 1.101875 23.27164063 1.0709375 24.29296875 1.0390625 C30.08598423 1.17496902 35.5685892 2.44267599 41.2265625 3.6328125 C42.38736328 3.87128906 43.54816406 4.10976563 44.74414062 4.35546875 C47.59377001 4.94181225 50.4419425 5.53442395 53.2890625 6.1328125 C53.2890625 6.4628125 53.2890625 6.7928125 53.2890625 7.1328125 C22.71829684 5.94255728 22.71829684 5.94255728 14.2890625 3.1328125 C12.16271769 3.36534873 10.03672929 3.60269925 7.91455078 3.87060547 C3.19283813 4.34216204 -1.53311101 4.23609625 -6.2734375 4.1953125 C-7.28212891 4.19080078 -8.29082031 4.18628906 -9.33007812 4.18164062 C-11.79042897 4.16998019 -14.25064989 4.15361628 -16.7109375 4.1328125 C-16.7109375 3.4728125 -16.7109375 2.8128125 -16.7109375 2.1328125 C-15.78861328 2.04193359 -15.78861328 2.04193359 -14.84765625 1.94921875 C-14.03941406 1.86542969 -13.23117187 1.78164063 -12.3984375 1.6953125 C-11.59792969 1.61410156 -10.79742187 1.53289063 -9.97265625 1.44921875 C-6.46927536 0.95910847 -3.59270622 0.00486911 0 0 Z " fill="#6B64CA" transform="translate(277.7109375,35.8671875)"/>
<path d="M0 0 C0.66 0 1.32 0 2 0 C1.10634213 7.53225917 1.10634213 7.53225917 0.49511719 10.22070312 C-2.27905658 25.79328409 -1.3866337 45.16197221 4 60 C4.4872768 61.41916868 4.97424242 62.83844422 5.4609375 64.2578125 C7.37238119 69.66227123 9.28476339 74.90669882 12.25 79.83984375 C12.8275 80.88269531 13.405 81.92554688 14 83 C13.67 83.66 13.34 84.32 13 85 C7.30763497 79.5208936 4.46063884 73.1015978 1.8125 65.8125 C1.56266357 65.1426709 1.31282715 64.4728418 1.05541992 63.78271484 C-2.82585301 52.64583246 -3.32440558 41.19407683 -3.25 29.5 C-3.25773438 28.28441406 -3.26546875 27.06882813 -3.2734375 25.81640625 C-3.23213089 6.46426179 -3.23213089 6.46426179 0 0 Z " fill="#8F8CC7" transform="translate(178,227)"/>
<path d="M0 0 C-3.5750242 2.09976105 -7.28365415 2.78602732 -11.3125 3.5 C-12.58738281 3.7371875 -13.86226563 3.974375 -15.17578125 4.21875 C-16.78274468 4.4859276 -18.39100689 4.74533056 -20 5 C-21.0945752 5.17499023 -22.18915039 5.34998047 -23.31689453 5.53027344 C-32.00407302 6.81294409 -40.44275125 7.31585109 -49.21142578 7.26074219 C-51.29097166 7.2497841 -53.36969486 7.26084313 -55.44921875 7.2734375 C-56.78385606 7.27211944 -58.11849286 7.26956441 -59.453125 7.265625 C-60.64067383 7.26336914 -61.82822266 7.26111328 -63.05175781 7.25878906 C-66 7 -66 7 -69 5 C-66.44676365 3.72338182 -64.68376514 3.90254487 -61.828125 3.9375 C-60.77810303 3.94612061 -59.72808105 3.95474121 -58.64624023 3.96362305 C-57.52548096 3.97562744 -56.40472168 3.98763184 -55.25 4 C-42.47612272 4.0550326 -30.38674809 3.59290976 -17.85327148 1.02294922 C-11.856718 -0.15498471 -6.08528264 -0.31117923 0 0 Z " fill="#382FAD" transform="translate(334,468)"/>
<path d="M0 0 C0.33 0 0.66 0 1 0 C1.02505615 0.94206299 1.0501123 1.88412598 1.07592773 2.85473633 C1.17194017 6.40153576 1.27111048 9.94821937 1.37231445 13.49487305 C1.41521661 15.02022942 1.45691568 16.54562019 1.49731445 18.07104492 C1.70714646 25.96435522 1.99466554 33.80856839 2.79272461 41.66918945 C3.0910356 45.02369484 3.09584438 48.31971713 3.0625 51.6875 C3.05347656 52.88761719 3.04445313 54.08773437 3.03515625 55.32421875 C3.01775391 56.64873047 3.01775391 56.64873047 3 58 C2.01 57.67 1.02 57.34 0 57 C0.01160156 56.23816406 0.02320312 55.47632813 0.03515625 54.69140625 C0.04417969 53.65886719 0.05320312 52.62632812 0.0625 51.5625 C0.07990234 50.04849609 0.07990234 50.04849609 0.09765625 48.50390625 C0.02456878 45.88152775 -0.16734495 43.45217801 -0.49609375 40.86328125 C-1.17675395 35.11971922 -1.14593148 29.40208724 -1.125 23.625 C-1.12886719 22.56539062 -1.13273437 21.50578125 -1.13671875 20.4140625 C-1.12831503 13.55662733 -0.74458639 6.81661207 0 0 Z " fill="#7A76B9" transform="translate(67,233)"/>
<path d="M0 0 C1.9375 0.3125 1.9375 0.3125 4 1 C4.33 1.99 4.66 2.98 5 4 C6.175625 4.2165625 6.175625 4.2165625 7.375 4.4375 C10 5 10 5 12 6 C12 6.66 12 7.32 12 8 C12.71671875 8.2784375 13.4334375 8.556875 14.171875 8.84375 C16.92242132 9.96828275 19.58302463 11.19046718 22.25 12.5 C23.12140625 12.9228125 23.9928125 13.345625 24.890625 13.78125 C27 15 27 15 28 17 C30.02463255 17.65213292 30.02463255 17.65213292 32 18 C32 18.66 32 19.32 32 20 C33.32 20.66 34.64 21.32 36 22 C34.2734375 22.671875 34.2734375 22.671875 32 23 C29.8515625 21.890625 29.8515625 21.890625 27.625 20.25 C24.18513651 17.80662724 20.79603841 15.855841 17 14 C13.625 11.9375 13.625 11.9375 11 10 C11 9.34 11 8.68 11 8 C10.113125 7.79375 9.22625 7.5875 8.3125 7.375 C4.07721318 5.61695642 2.69506667 3.64626667 0 0 Z " fill="#4239C4" transform="translate(151,428)"/>
<path d="M0 0 C4.93144948 0.37218487 8.9458272 1.25791657 13.5625 3.0625 C18.00623653 4.77686632 21.27270875 5.42020367 26 5 C26 5.66 26 6.32 26 7 C28.475 7.495 28.475 7.495 31 8 C31 8.66 31 9.32 31 10 C28.1875 10.625 28.1875 10.625 25 11 C24.01 10.34 23.02 9.68 22 9 C21.01 9 20.02 9 19 9 C19 8.34 19 7.68 19 7 C17.5459375 6.8453125 17.5459375 6.8453125 16.0625 6.6875 C10.85937779 5.95481544 5.70238027 4.35119014 1 2 C0.67 1.34 0.34 0.68 0 0 Z " fill="#332FAE" transform="translate(203,458)"/>
<path d="M0 0 C1.98 0.99 3.96 1.98 6 3 C6 3.66 6 4.32 6 5 C7.175625 5.4640625 7.175625 5.4640625 8.375 5.9375 C11 7 11 7 13 8 C13 8.66 13 9.32 13 10 C14.2684375 10.12375 14.2684375 10.12375 15.5625 10.25 C19.09898328 11.02159635 21.22845458 12.21838188 24.25390625 14.078125 C26.74944202 15.39567856 29.21626576 15.72841617 32 16 C30.3046875 17.109375 30.3046875 17.109375 28 18 C25.6328125 17.390625 25.6328125 17.390625 23.125 16.25 C20.38923729 15.04163834 17.89208474 13.97077295 15 13.1875 C10.20108318 11.28792876 5.95101461 8.31073161 2 5 C2 4.34 2 3.68 2 3 C1.34 3 0.68 3 0 3 C0 2.01 0 1.02 0 0 Z " fill="#3A34C7" transform="translate(238,305)"/>
<path d="M0 0 C0 3.67819168 -0.76843318 4.22382655 -3.1875 6.875 C-3.826875 7.57625 -4.46625 8.2775 -5.125 9 C-5.74375 9.66 -6.3625 10.32 -7 11 C-7.886875 11.94875 -8.77375 12.8975 -9.6875 13.875 C-12 16 -12 16 -13.87890625 16.8125 C-16.74772022 18.41861316 -18.25353309 20.52959302 -20.25 23.125 C-20.95640625 24.03507812 -21.6628125 24.94515625 -22.390625 25.8828125 C-22.92171875 26.58148438 -23.4528125 27.28015625 -24 28 C-25.32 27.67 -26.64 27.34 -28 27 C-26.50260417 25.828125 -25.00520833 24.65625 -23.5078125 23.484375 C-21.89611933 22.06088329 -21.89611933 22.06088329 -21.03515625 20.0390625 C-19.80332019 17.61257788 -18.39359719 16.36674343 -16.3125 14.625 C-15.60480469 14.02429688 -14.89710938 13.42359375 -14.16796875 12.8046875 C-13.45253906 12.20914063 -12.73710937 11.61359375 -12 11 C-10.70594195 9.91952434 -9.41408764 8.83640091 -8.125 7.75 C-7.57070312 7.29109375 -7.01640625 6.8321875 -6.4453125 6.359375 C-4.74570157 4.86344602 -4.74570157 4.86344602 -3 2 C-2.01 1.34 -1.02 0.68 0 0 Z " fill="#958BCB" transform="translate(143,89)"/>
<path d="M0 0 C1.25361328 0.00322266 2.50722656 0.00644531 3.79882812 0.00976562 C5.76432617 0.02233398 5.76432617 0.02233398 7.76953125 0.03515625 C9.10481606 0.04017308 10.44010266 0.04473566 11.77539062 0.04882812 C15.04431598 0.0606293 18.31315116 0.07709328 21.58203125 0.09765625 C21.58203125 0.75765625 21.58203125 1.41765625 21.58203125 2.09765625 C14.68584267 3.00336044 7.9699458 3.21995465 1.01953125 3.16015625 C0.01083984 3.15564453 -0.99785156 3.15113281 -2.03710938 3.14648438 C-4.49746022 3.13482394 -6.95768114 3.11846003 -9.41796875 3.09765625 C-9.41796875 2.43765625 -9.41796875 1.77765625 -9.41796875 1.09765625 C-6.06061738 -0.02146087 -3.53591489 -0.01599961 0 0 Z " fill="#908ACD" transform="translate(270.41796875,36.90234375)"/>
<path d="M0 0 C2.10111974 1.50079982 2.67897376 2.93883811 3.75 5.25 C3.15832031 5.1778125 2.56664062 5.105625 1.95703125 5.03125 C-6.19984116 4.00337913 -6.19984116 4.00337913 -14.25 5.25 C-14.25 5.91 -14.25 6.57 -14.25 7.25 C-17.715 8.735 -17.715 8.735 -21.25 10.25 C-19.8493784 6.748446 -18.62735911 5.78516323 -15.25 4.25 C-14.755 3.755 -14.26 3.26 -13.75 2.75 C-9.81053211 -1.18946789 -5.24602029 -1.74867343 0 0 Z " fill="#463ED5" transform="translate(365.25,336.75)"/>
<path d="M0 0 C0.66 0 1.32 0 2 0 C1.11207977 7.48389909 1.11207977 7.48389909 0.49780273 10.3125 C0.00145844 12.99212631 -0.1882439 15.51661615 -0.28125 18.23828125 C-0.31863281 19.22376953 -0.35601562 20.20925781 -0.39453125 21.22460938 C-0.42933594 22.24361328 -0.46414062 23.26261719 -0.5 24.3125 C-0.72880345 30.93508878 -1.05908363 37.43710831 -2 44 C-2.33 44 -2.66 44 -3 44 C-3.05029881 40.1080325 -3.08613311 36.21619675 -3.10986328 32.32397461 C-3.1245951 30.36630582 -3.15003698 28.40872682 -3.17578125 26.45117188 C-3.27703873 6.55407746 -3.27703873 6.55407746 0 0 Z " fill="#9394DD" transform="translate(178,227)"/>
<path d="M0 0 C1.45079956 0.0012085 1.45079956 0.0012085 2.9309082 0.00244141 C24.62152329 0.1851822 24.62152329 0.1851822 30.625 4.1875 C32.28049531 4.57249891 33.9472433 4.91543135 35.625 5.1875 C35.625 5.8475 35.625 6.5075 35.625 7.1875 C34.4184375 6.89875 33.211875 6.61 31.96875 6.3125 C30.35427349 5.93704035 28.73968403 5.5620662 27.125 5.1875 C26.33351563 4.99671875 25.54203125 4.8059375 24.7265625 4.609375 C19.56237043 3.42415059 14.92274939 2.99308718 9.625 3.1875 C9.625 2.5275 9.625 1.8675 9.625 1.1875 C-0.05876158 1.68820054 -9.72684646 2.18868234 -19.375 3.1875 C-13.58806918 -0.67045388 -6.73806322 -0.00580217 0 0 Z " fill="#8580B3" transform="translate(284.375,146.8125)"/>
<path d="M0 0 C5.43550528 3.73024872 10.10434128 7.911606 14.75 12.5625 C15.30453857 13.11639404 15.85907715 13.67028809 16.43041992 14.2409668 C19.49906725 17.35039965 22.33605321 20.52781693 25 24 C24.34 24.66 23.68 25.32 23 26 C23 25.01 23 24.02 23 23 C22.01 22.67 21.02 22.34 20 22 C20 21.34 20 20.68 20 20 C19.01 20 18.02 20 17 20 C15.74730346 18.54950927 14.50111806 17.09162399 13.3203125 15.58203125 C11.47638529 13.37259184 9.26927583 11.75868876 7 10 C5.31384218 8.35305515 3.64429829 6.68873879 2 5 C1.34 4.34 0.68 3.68 0 3 C0 2.01 0 1.02 0 0 Z " fill="#403ECA" transform="translate(372,343)"/>
<path d="M0 0 C2.0625 0.4375 2.0625 0.4375 4 1 C2.71186658 1.83878455 1.41936744 2.67086783 0.125 3.5 C-0.59429687 3.9640625 -1.31359375 4.428125 -2.0546875 4.90625 C-4 6 -4 6 -6 6 C-6.33 6.66 -6.66 7.32 -7 8 C-8.92578125 9 -8.92578125 9 -11.3125 10 C-13.62760613 10.97961515 -15.88757644 11.93992953 -18.10546875 13.125 C-20 14 -20 14 -23 14 C-23.33 14.66 -23.66 15.32 -24 16 C-24.99 15.34 -25.98 14.68 -27 14 C-25.23244474 13.15973604 -23.46082737 12.32801278 -21.6875 11.5 C-20.70136719 11.0359375 -19.71523438 10.571875 -18.69921875 10.09375 C-16 9 -16 9 -13 9 C-13 8.34 -13 7.68 -13 7 C-12.14535156 6.57847656 -11.29070312 6.15695312 -10.41015625 5.72265625 C-9.30542969 5.17480469 -8.20070313 4.62695312 -7.0625 4.0625 C-5.96035156 3.51722656 -4.85820312 2.97195313 -3.72265625 2.41015625 C-1.15205586 1.25295022 -1.15205586 1.25295022 0 0 Z " fill="#3B34B8" transform="translate(392,443)"/>
<path d="M0 0 C3.88472178 3.38346735 3.88472178 3.38346735 4.4375 6.33984375 C5.09001307 9.42568682 6.30349764 11.27184285 8.0625 13.875 C10.82658974 18.2817111 11.66939992 20.86793396 11 26 C8.71865193 23.71865193 7.90412489 21.76589345 6.625 18.8125 C5.14802736 15.45534557 3.64203689 12.2897187 1.6875 9.1875 C-0.12034697 5.77267794 -0.37082875 3.80099473 0 0 Z " fill="#3A34CC" transform="translate(409,385)"/>
<path d="M0 0 C1.99553564 2.99330346 2.57187631 4.92629239 3.375 8.375 C4.52192538 12.81055834 5.8228926 15.61108544 9 19 C9.33 19.99 9.66 20.98 10 22 C10.99 22.66 11.98 23.32 13 24 C11.02 24.99 11.02 24.99 9 26 C7.63823651 23.67995849 6.31234354 21.34796289 5 19 C4.54496094 18.21625 4.08992187 17.4325 3.62109375 16.625 C0.38970101 10.73300184 -0.54111837 6.70986777 0 0 Z " fill="#3E37CC" transform="translate(219,271)"/>
<path d="M0 0 C8.43605622 5.45531636 15.20403976 10.71712065 21 19 C17.22031427 18.22976993 15.52040369 16.97047577 13 14 C13 13.34 13 12.68 13 12 C12.01 12 11.02 12 10 12 C8.76341868 10.50308577 7.53012864 9.00273418 6.33984375 7.46875 C4.51005703 5.46291966 2.5775836 4.73645246 0 4 C0 2.68 0 1.36 0 0 Z " fill="#3631CD" transform="translate(318,195)"/>
<path d="M0 0 C7.33126033 1.40985776 13.43032485 4.51807217 20 8 C20 8.66 20 9.32 20 10 C21.11375 10.433125 21.11375 10.433125 22.25 10.875 C24.56739797 11.82302644 26.77917115 12.84845911 29 14 C28.67 14.99 28.34 15.98 28 17 C27.15179688 16.43152344 26.30359375 15.86304688 25.4296875 15.27734375 C17.21910746 9.84807115 8.90231064 5.20762707 0 1 C0 0.67 0 0.34 0 0 Z " fill="#918BD7" transform="translate(322,154)"/>
<path d="M0 0 C0.6875 1.6875 0.6875 1.6875 1 4 C-0.33566837 6.81193341 -1.69195581 8.72083495 -4 10.8125 C-6.82566594 13.90307212 -7.67978355 17.03935065 -9 21 C-9.66 21 -10.32 21 -11 21 C-11 22.65 -11 24.3 -11 26 C-11.99 26.33 -12.98 26.66 -14 27 C-11.30632533 17.23542933 -6.28512295 7.95460873 0 0 Z " fill="#595AEC" transform="translate(167,375)"/>
<path d="M0 0 C-8.70975969 4.6898706 -18.35664187 4.25011592 -28 4 C-28 3.67 -28 3.34 -28 3 C-18.56403855 0.98827218 -9.70835475 -0.49644996 0 0 Z " fill="#4239C2" transform="translate(334,468)"/>
<path d="M0 0 C4.7312253 1.49407115 4.7312253 1.49407115 6.0625 4 C6.371875 4.66 6.68125 5.32 7 6 C9.29504633 7.4066413 11.43428919 8.14476306 14 9 C14.33 9.99 14.66 10.98 15 12 C15.66 12.33 16.32 12.66 17 13 C17 13.66 17 14.32 17 15 C17.66 15.33 18.32 15.66 19 16 C15.30650564 16 13.99506543 15.11846092 11 13 C9.62517293 11.36739286 8.29352333 9.69774938 7 8 C6.13375 7.13375 5.2675 6.2675 4.375 5.375 C2 3 2 3 0 0 Z " fill="#8E8CC9" transform="translate(127,407)"/>
<path d="M0 0 C0.33 0 0.66 0 1 0 C2.10865535 7.52180016 2.22188635 13.91185004 -1 21 C-1.33 21 -1.66 21 -2 21 C-3.38591277 13.30233993 -2.48407886 7.38206487 0 0 Z " fill="#7B7DBE" transform="translate(70,211)"/>
<path d="M0 0 C-4.4420927 2.45080976 -9.25084678 3.60473795 -14.1015625 5 C-17.08428477 5.79240473 -17.08428477 5.79240473 -19 8 C-20.9375 8.5625 -20.9375 8.5625 -23 9 C-23.99 9.33 -24.98 9.66 -26 10 C-24.6128599 5.8385797 -22.4396387 5.13472052 -18.6796875 3.140625 C-12.71863262 0.60326636 -6.43667324 -0.12734425 0 0 Z " fill="#8984C3" transform="translate(262,150)"/>
<path d="M0 0 C1.32 0.33 2.64 0.66 4 1 C3.24074219 1.54269531 2.48148437 2.08539063 1.69921875 2.64453125 C0.70535156 3.35996094 -0.28851563 4.07539063 -1.3125 4.8125 C-2.29863281 5.52019531 -3.28476562 6.22789062 -4.30078125 6.95703125 C-6.92119926 8.83686265 -6.92119926 8.83686265 -8.66796875 10.69921875 C-10 12 -10 12 -13 13 C-13.66 12.34 -14.32 11.68 -15 11 C-13.25579087 9.67981412 -11.50439909 8.36911398 -9.75 7.0625 C-8.77546875 6.33160156 -7.8009375 5.60070312 -6.796875 4.84765625 C-4.3732119 3.24654921 -2.8242508 2.42363762 0 2 C0 1.34 0 0.68 0 0 Z " fill="#4035CD" transform="translate(328,306)"/>
<path d="M0 0 C1.83984375 0.234375 1.83984375 0.234375 4 1 C5.37890625 2.890625 5.37890625 2.890625 6.5625 5.25 C6.98015625 6.06082031 7.3978125 6.87164062 7.828125 7.70703125 C8.21484375 8.46371094 8.6015625 9.22039062 9 10 C9.598125 10.969375 10.19625 11.93875 10.8125 12.9375 C12 15 12 15 12 17 C10.1328125 16.74609375 10.1328125 16.74609375 8 16 C6.8046875 14.22265625 6.8046875 14.22265625 5.875 12.0625 C4.73544797 9.46790013 4.03450153 8.03450153 2 6 C1.28591666 4.01643517 0.61382258 2.01684563 0 0 Z " fill="#3D36C4" transform="translate(338,215)"/>
<path d="M0 0 C-1.32 0.33 -2.64 0.66 -4 1 C-4 1.66 -4 2.32 -4 3 C-6.51943396 3.50812114 -9.04016873 4.00664534 -11.5625 4.5 C-12.26697266 4.64308594 -12.97144531 4.78617188 -13.69726562 4.93359375 C-18.21890238 5.80874925 -22.39487028 6.14523405 -27 6 C-24.30472732 4.55501021 -21.82920025 3.59758076 -18.84765625 2.9296875 C-17.68266602 2.66865234 -17.68266602 2.66865234 -16.49414062 2.40234375 C-15.29047852 2.14130859 -15.29047852 2.14130859 -14.0625 1.875 C-13.26392578 1.69324219 -12.46535156 1.51148438 -11.64257812 1.32421875 C-7.69989272 0.45532536 -4.06472692 -0.24634709 0 0 Z " fill="#938DC9" transform="translate(257,39)"/>
<path d="M0 0 C-6 3 -6 3 -8.00390625 3.984375 C-11.03932729 5.48192618 -13.98092162 6.98838708 -16.875 8.75 C-19 10 -19 10 -21 10 C-21 9.34 -21 8.68 -21 8 C-19.05017465 6.59431196 -17.04049422 5.2704964 -15 4 C-13.7625 3.195625 -13.7625 3.195625 -12.5 2.375 C-8.31798002 0.07488901 -4.67276429 -1.79721703 0 0 Z " fill="#4138CC" transform="translate(264,192)"/>
<path d="M0 0 C0.99 0.33 1.98 0.66 3 1 C3 1.66 3 2.32 3 3 C-4.2313827 6.86794889 -9.94747331 7.14072377 -18 7 C-17.34 6.01 -16.68 5.02 -16 4 C-16 4.66 -16 5.32 -16 6 C-15.09636719 5.71125 -14.19273437 5.4225 -13.26171875 5.125 C-12.08222656 4.75375 -10.90273438 4.3825 -9.6875 4 C-8.51574219 3.62875 -7.34398437 3.2575 -6.13671875 2.875 C-3 2 -3 2 0 2 C0 1.34 0 0.68 0 0 Z " fill="#4235BF" transform="translate(320,356)"/>
<path d="M0 0 C4.27564952 4.27564952 4.12259277 11.14571917 4.1953125 16.91015625 C4.18220788 18.96102956 4.15863825 21.0118607 4.125 23.0625 C4.11597656 24.11888672 4.10695313 25.17527344 4.09765625 26.26367188 C4.0743167 28.84269253 4.04157775 31.4212199 4 34 C3.34 33.67 2.68 33.34 2 33 C2.03480469 31.09927734 2.03480469 31.09927734 2.0703125 29.16015625 C2.08908833 27.46094345 2.10728657 25.7617242 2.125 24.0625 C2.14175781 23.23169922 2.15851563 22.40089844 2.17578125 21.54492188 C2.21553542 16.43651114 1.72350493 11.86480782 0.4453125 6.9140625 C-0.0982195 4.57782848 -0.15410918 2.38869236 0 0 Z " fill="#3C35BB" transform="translate(349,234)"/>
<path d="M0 0 C0.33 0 0.66 0 1 0 C1.19300422 5.50062041 0.73016669 9.70772542 -1 15 C-1.2165625 16.0209375 -1.2165625 16.0209375 -1.4375 17.0625 C-2.25965762 19.89437625 -3.6378317 22.39411281 -5 25 C-5.33 25 -5.66 25 -6 25 C-6.3152595 19.01006953 -5.68219822 15.36439644 -3 10 C-2.34 10 -1.68 10 -1 10 C-0.67 6.7 -0.34 3.4 0 0 Z M-3 16 C-2 18 -2 18 -2 18 Z " fill="#7F7CC7" transform="translate(422,88)"/>
<path d="M0 0 C2.03833424 1.2739589 4.03852126 2.61061923 6 4 C6 4.66 6 5.32 6 6 C7.134375 6.5775 8.26875 7.155 9.4375 7.75 C12.86983743 9.68760984 12.86983743 9.68760984 13.9375 12.25 C13.958125 12.8275 13.97875 13.405 14 14 C13.34 14 12.68 14 12 14 C12 13.34 12 12.68 12 12 C11.41476563 11.896875 10.82953125 11.79375 10.2265625 11.6875 C7.65078584 10.89217247 6.35231611 9.81181388 4.375 8 C1.87625688 5.72782776 1.87625688 5.72782776 -1 4 C-0.67 2.68 -0.34 1.36 0 0 Z " fill="#312FD5" transform="translate(211,334)"/>
<path d="M0 0 C0.99 0 1.98 0 3 0 C3.16435547 0.99966797 3.16435547 0.99966797 3.33203125 2.01953125 C4.35601553 7.97196017 5.67032288 13.70849667 7.4140625 19.4921875 C8.01903377 22.08146455 8.10444273 24.35095259 8 27 C6.14998836 24.22498254 5.38964056 22.36673921 4.4921875 19.21875 C4.22792969 18.29449219 3.96367188 17.37023437 3.69140625 16.41796875 C3.42199219 15.45503906 3.15257813 14.49210937 2.875 13.5 C2.59785156 12.53707031 2.32070312 11.57414062 2.03515625 10.58203125 C0 3.39381927 0 3.39381927 0 0 Z " fill="#8385CA" transform="translate(68,292)"/>
<path d="M0 0 C1.3096875 -0.00515625 2.619375 -0.0103125 3.96875 -0.015625 C7.15242072 0.22385466 8.86102529 0.55351625 11.5 2.25 C3.81381187 3.58672837 -3.82557751 3.86566789 -11.5 2.25 C-7.75380451 -0.15826853 -4.37270385 -0.01721537 0 0 Z " fill="#2421B1" transform="translate(285.5,185.75)"/>
<path d="M0 0 C7.75958885 2.19855018 14.15485378 5.77245623 21 10 C20.67 10.66 20.34 11.32 20 12 C19.278125 11.525625 18.55625 11.05125 17.8125 10.5625 C15.10524774 9.05847097 13.03805725 8.43400818 10 8 C10 7.34 10 6.68 10 6 C7.69 5.34 5.38 4.68 3 4 C3 3.34 3 2.68 3 2 C2.01 2 1.02 2 0 2 C0 1.34 0 0.68 0 0 Z " fill="#948DD4" transform="translate(375,58)"/>
<path d="M0 0 C2.96175123 0.61277612 4.38058783 1.25372522 7 3 C7.66 2.67 8.32 2.34 9 2 C11.1640625 2.99609375 11.1640625 2.99609375 13.625 4.4375 C14.85089844 5.14712891 14.85089844 5.14712891 16.1015625 5.87109375 C16.72804687 6.24363281 17.35453125 6.61617188 18 7 C18 7.33 18 7.66 18 8 C12.93767116 8.48990279 8.67369154 6.7106322 4 5 C4 4.34 4 3.68 4 3 C2.68 2.67 1.36 2.34 0 2 C0 1.34 0 0.68 0 0 Z " fill="#2E2ADB" transform="translate(235,352)"/>
<path d="M0 0 C1.16516703 3.39451994 0.83093313 5.34075897 -0.375 8.6875 C-0.65085938 9.47511719 -0.92671875 10.26273437 -1.2109375 11.07421875 C-2 13 -2 13 -3 14 C-3.23075082 15.34747084 -3.41153063 16.70377565 -3.5625 18.0625 C-3.706875 19.361875 -3.85125 20.66125 -4 22 C-4.66 21.67 -5.32 21.34 -6 21 C-5.55355616 13.41045469 -2.88499438 6.98360263 0 0 Z " fill="#595BEC" transform="translate(152,402)"/>
<path d="M0 0 C0.66 0 1.32 0 2 0 C1.28597154 3.40166367 0.02034859 6.35070098 -1.4375 9.5 C-2.08525391 10.90765625 -2.08525391 10.90765625 -2.74609375 12.34375 C-3.80127743 14.57903006 -4.8821773 16.79554966 -6 19 C-6.66 19 -7.32 19 -8 19 C-7.54738642 17.56068883 -7.08767021 16.12361001 -6.625 14.6875 C-6.36976563 13.88699219 -6.11453125 13.08648437 -5.8515625 12.26171875 C-5 10 -5 10 -3 7 C-2.32136945 5.0040278 -1.65358081 3.00431449 -1 1 C-0.67 0.67 -0.34 0.34 0 0 Z " fill="#3D35C9" transform="translate(227,216)"/>
<path d="M0 0 C7.83534611 -0.61187085 13.8036691 0.93540281 21 4 C20.67 4.66 20.34 5.32 20 6 C6.3667426 2.92482916 6.3667426 2.92482916 0 1 C0 0.67 0 0.34 0 0 Z " fill="#3B38C4" transform="translate(290,188)"/>
<path d="M0 0 C3.96 0 7.92 0 12 0 C12 0.33 12 0.66 12 1 C17.94 1.33 23.88 1.66 30 2 C30 2.33 30 2.66 30 3 C26.50007197 3.05869332 23.0002728 3.09382709 19.5 3.125 C18.02660156 3.15013672 18.02660156 3.15013672 16.5234375 3.17578125 C10.64081335 3.21499874 5.63635497 2.70432638 0 1 C0 0.67 0 0.34 0 0 Z " fill="#4944EB" transform="translate(268,320)"/>
<path d="M0 0 C0.33 0 0.66 0 1 0 C1.95458649 8.35263176 2.11039334 16.59784035 2 25 C1.01 24.67 0.02 24.34 -1 24 C-0.67 16.08 -0.34 8.16 0 0 Z " fill="#878AD1" transform="translate(68,266)"/>
<path d="M0 0 C0.66 0.99 1.32 1.98 2 3 C0.2335343 4.0076952 -1.53833823 5.00591714 -3.3125 6 C-4.79169922 6.8353125 -4.79169922 6.8353125 -6.30078125 7.6875 C-9 9 -9 9 -12 9 C-12 8.01 -12 7.02 -12 6 C-8.04 4.02 -4.08 2.04 0 0 Z " fill="#9B98D5" transform="translate(183,62)"/>
<path d="M0 0 C0.73046875 1.66015625 0.73046875 1.66015625 1 4 C-0.51171875 6.62109375 -0.51171875 6.62109375 -2.6875 9.4375 C-3.39261719 10.36433594 -4.09773438 11.29117188 -4.82421875 12.24609375 C-6.87275843 14.83894918 -8.9294613 17.42467986 -11 20 C-10.67 18.02 -10.34 16.04 -10 14 C-9.34 14 -8.68 14 -8 14 C-7.67 12.68 -7.34 11.36 -7 10 C-6.34 10 -5.68 10 -5 10 C-4.731875 9.0925 -4.46375 8.185 -4.1875 7.25 C-3.10423706 4.28528037 -2.01640543 2.3830246 0 0 Z " fill="#857DC2" transform="translate(411,120)"/>
<path d="M0 0 C0.66 0.33 1.32 0.66 2 1 C2 1.99 2 2.98 2 4 C-0.92999311 6.81730107 -4.08490529 8.0412013 -8 9 C-10.875 8.625 -10.875 8.625 -13 8 C-12.01 7.67 -11.02 7.34 -10 7 C-8.43651018 6.03447646 -6.89630068 5.03071837 -5.375 4 C-4.57835937 3.46375 -3.78171875 2.9275 -2.9609375 2.375 C-1.08926401 1.14692927 -1.08926401 1.14692927 0 0 Z " fill="#3831BC" transform="translate(340,346)"/>
<path d="M0 0 C5.11749154 4.91279188 9.80221592 10.28386848 14 16 C13.34 16.33 12.68 16.66 12 17 C10 16 10 16 9 13 C7.70687386 11.84900626 6.3671627 10.74949245 5 9.6875 C2.02836665 7.19345058 1.11454742 6.39375675 0 2.5625 C0 1.716875 0 0.87125 0 0 Z " fill="#9186C7" transform="translate(197,319)"/>
<path d="M0 0 C1.3148476 4.46036762 1.20618903 8.51074018 0 13 C-2.5625 16.0625 -2.5625 16.0625 -5 18 C-4.67 14.7 -4.34 11.4 -4 8 C-3.34 8 -2.68 8 -2 8 C-1.7834375 6.576875 -1.7834375 6.576875 -1.5625 5.125 C-1 2 -1 2 0 0 Z " fill="#7E7FB6" transform="translate(79,180)"/>
<path d="M0 0 C0.99 0.33 1.98 0.66 3 1 C1.37676928 3.12637234 -0.2484953 5.25113436 -1.875 7.375 C-2.33519531 7.97828125 -2.79539063 8.5815625 -3.26953125 9.203125 C-5.09372941 11.58251391 -6.87741212 13.87741212 -9 16 C-9 14.68 -9 13.36 -9 12 C-8.34 12 -7.68 12 -7 12 C-6.773125 11.13375 -6.54625 10.2675 -6.3125 9.375 C-4.75974905 5.38221186 -2.85680105 3.15751695 0 0 Z " fill="#7E7AC9" transform="translate(201,184)"/>
<path d="M0 0 C0 0.99 0 1.98 0 3 C-2.97 3.66 -5.94 4.32 -9 5 C-9 5.66 -9 6.32 -9 7 C-11.70879335 8.35439668 -14.00933268 8.06501451 -17 8 C-12.07685796 4.17088952 -8.25790767 1.83438769 -2 1 C-1.34 0.67 -0.68 0.34 0 0 Z " fill="#9181CE" transform="translate(210,50)"/>
<path d="M0 0 C-2.83077371 2.83077371 -6.15627788 3.22708446 -9.9375 4.125 C-10.66646484 4.30675781 -11.39542969 4.48851562 -12.14648438 4.67578125 C-15.16479369 5.41168435 -17.88224375 6 -21 6 C-21 5.34 -21 4.68 -21 4 C-18.43923903 3.32595716 -15.87673417 2.660586 -13.3125 2 C-12.59126953 1.80921875 -11.87003906 1.6184375 -11.12695312 1.421875 C-7.33149039 0.45134572 -3.95384561 -0.24955239 0 0 Z " fill="#4038BE" transform="translate(356,462)"/>
<path d="M0 0 C0.53367188 0.144375 1.06734375 0.28875 1.6171875 0.4375 C7.50228763 1.90368411 12.95009776 2.22734497 19 2 C14.34651729 5.1023218 10.59867829 5.3928897 5 5 C2.0625 3.625 2.0625 3.625 0 2 C0 1.34 0 0.68 0 0 Z " fill="#312DBC" transform="translate(254,359)"/>
<path d="M0 0 C1.74627478 2.61941217 2.38722388 4.03824877 3 7 C3.66 7 4.32 7 5 7 C5.70180531 8.4096347 6.38593958 9.82807641 7.0625 11.25 C7.44535156 12.03890625 7.82820313 12.8278125 8.22265625 13.640625 C9.08564091 16.25993522 8.93045933 17.44855176 8 20 C5.67717458 16.05119678 3.61110676 12.29628471 2 8 C1.01415113 5.66044819 0.00560103 3.33116602 -1 1 C-0.67 0.67 -0.34 0.34 0 0 Z " fill="#9290D1" transform="translate(87,346)"/>
<path d="M0 0 C0.33 0.66 0.66 1.32 1 2 C0.03567924 3.68756133 -0.9731657 5.3497306 -2 7 C-3.56089458 10.43396808 -4.92805158 13.75717407 -6 17.375 C-6.33 18.24125 -6.66 19.1075 -7 20 C-7.99 20.33 -8.98 20.66 -10 21 C-8.71614268 15.92908616 -6.98799724 11.73612863 -4.4375 7.125 C-3.50744141 5.42730469 -3.50744141 5.42730469 -2.55859375 3.6953125 C-1 1 -1 1 0 0 Z " fill="#847FBC" transform="translate(92,153)"/>
<path d="M0 0 C0.33 0.99 0.66 1.98 1 3 C-2 5 -2 5 -5 5 C-5 5.66 -5 6.32 -5 7 C-5.66 7 -6.32 7 -7 7 C-7 7.66 -7 8.32 -7 9 C-11.625 11.125 -11.625 11.125 -15 10 C-9.25 6 -9.25 6 -7 6 C-7 5.34 -7 4.68 -7 4 C-4.69 2.68 -2.38 1.36 0 0 Z " fill="#9186D1" transform="translate(169,70)"/>
<path d="M0 0 C0.33 0.66 0.66 1.32 1 2 C0.06553465 4.03144641 -0.93224776 6.03533587 -2 8 C-2.99 8 -3.98 8 -5 8 C-5 8.66 -5 9.32 -5 10 C-5.66 10 -6.32 10 -7 10 C-7.66 11.32 -8.32 12.64 -9 14 C-9.33 13.01 -9.66 12.02 -10 11 C-9.34 10.01 -8.68 9.02 -8 8 C-7.34 8 -6.68 8 -6 8 C-5.7525 7.4225 -5.505 6.845 -5.25 6.25 C-3.83316683 3.6997003 -2.12372463 1.98214299 0 0 Z " fill="#3634C3" transform="translate(241,201)"/>
<path d="M0 0 C-0.73605469 0.38671875 -1.47210938 0.7734375 -2.23046875 1.171875 C-7.17658299 3.81154495 -11.68940038 6.38465838 -16 10 C-16.66 10 -17.32 10 -18 10 C-17.67 9.01 -17.34 8.02 -17 7 C-14.9375 6.3125 -14.9375 6.3125 -13 6 C-13 5.34 -13 4.68 -13 4 C-11.40233897 3.13372601 -9.79660056 2.28233535 -8.1875 1.4375 C-7.29417969 0.96183594 -6.40085938 0.48617187 -5.48046875 -0.00390625 C-3 -1 -3 -1 0 0 Z " fill="#8785CA" transform="translate(235,161)"/>
<path d="M0 0 C1.65 0.33 3.3 0.66 5 1 C5 1.66 5 2.32 5 3 C2.91952703 3.5321441 0.83547707 4.05031786 -1.25 4.5625 C-2.41015625 4.85253906 -3.5703125 5.14257812 -4.765625 5.44140625 C-7.72090983 5.95179964 -9.24434101 6.02996165 -12 5 C-10.75336669 4.49166409 -9.50250613 3.99368855 -8.25 3.5 C-7.55390625 3.2215625 -6.8578125 2.943125 -6.140625 2.65625 C-4 2 -4 2 0 2 C0 1.34 0 0.68 0 0 Z " fill="#8E84D6" transform="translate(225,44)"/>
<path d="M0 0 C-1.0725 0.598125 -2.145 1.19625 -3.25 1.8125 C-5.40453641 3.03558027 -7.33064445 4.25021742 -9.3125 5.75 C-11 7 -11 7 -13 7 C-11.27879035 2.98384416 -9.04878771 -0.13081733 -4.9375 -1.875 C-3 -2 -3 -2 0 0 Z " fill="#433ACE" transform="translate(420,429)"/>
<path d="M0 0 C3.08964868 0.93407983 5.75367088 1.8460443 8.5 3.5625 C11.35131786 5.20200777 13.75516724 5.62269387 17 6 C15.3125 7.10546875 15.3125 7.10546875 13 8 C10.5625 7.42578125 10.5625 7.42578125 8 6.3125 C7.154375 5.95800781 6.30875 5.60351562 5.4375 5.23828125 C3.05938923 4.03017049 1.07558955 2.66719809 -1 1 C-0.67 0.67 -0.34 0.34 0 0 Z " fill="#4039D8" transform="translate(253,315)"/>
<path d="M0 0 C0.66 0 1.32 0 2 0 C1.57771147 2.46185226 1.13804346 4.91830534 0.6875 7.375 C0.56955078 8.07367188 0.45160156 8.77234375 0.33007812 9.4921875 C-0.01798989 11.34855026 -0.50252727 13.17798054 -1 15 C-1.99 15.66 -2.98 16.32 -4 17 C-3.21450457 11.18733381 -1.59317541 5.63122376 0 0 Z " fill="#3B2AB9" transform="translate(350,269)"/>
<path d="M0 0 C0 0.33 0 0.66 0 1 C-1.9575985 1.50286934 -3.91610377 2.0022099 -5.875 2.5 C-6.96554687 2.7784375 -8.05609375 3.056875 -9.1796875 3.34375 C-12 4 -12 4 -14 4 C-14 3.01 -14 2.02 -14 1 C-8.83430559 -0.79217969 -5.48946087 -1.12029814 0 0 Z " fill="#3F37C4" transform="translate(280,188)"/>
<path d="M0 0 C0 3.08086951 -0.4446885 4.40392756 -1.75 7.125 C-2.23726563 8.18074219 -2.23726563 8.18074219 -2.734375 9.2578125 C-4 11 -4 11 -6.140625 11.7421875 C-6.75421875 11.82726562 -7.3678125 11.91234375 -8 12 C-6.49087042 7.01987239 -3.44338151 3.75740058 0 0 Z " fill="#9190D5" transform="translate(115,118)"/>
<path d="M0 0 C1.75 0.0625 1.75 0.0625 4 1 C5.52956035 3.23932036 6.71657623 5.60427563 8 8 C8.66 8.33 9.32 8.66 10 9 C10 9.66 10 10.32 10 11 C9.01 11.33 8.02 11.66 7 12 C6.401875 10.906875 5.80375 9.81375 5.1875 8.6875 C3.69770009 6.05781761 2.19726601 4.08740271 0 2 C0 1.34 0 0.68 0 0 Z " fill="#8585C8" transform="translate(108,384)"/>
<path d="M0 0 C0.66 0.33 1.32 0.66 2 1 C-1.44615385 5.8 -1.44615385 5.8 -4.25 6.8125 C-5.11625 6.9053125 -5.11625 6.9053125 -6 7 C-6 7.66 -6 8.32 -6 9 C-7.65 9.33 -9.3 9.66 -11 10 C-7.50640535 6.40365256 -3.88901869 3.16548033 0 0 Z " fill="#5555EC" transform="translate(201,341)"/>
<path d="M0 0 C4.90522335 2.32998109 9.43910942 5.0713063 14 8 C11 9 11 9 8.125 7.75 C7.09375 7.1725 6.0625 6.595 5 6 C3.576875 5.2575 3.576875 5.2575 2.125 4.5 C1.42375 4.005 0.7225 3.51 0 3 C0 2.01 0 1.02 0 0 Z " fill="#8B8DD3" transform="translate(397,69)"/>
<path d="M0 0 C-4.71159603 3.73678306 -8.01903338 4.11284843 -14 4 C-13.67 3.34 -13.34 2.68 -13 2 C-8.55499776 0.66649933 -4.6681169 -0.29175731 0 0 Z " fill="#4039CC" transform="translate(313,318)"/>
<path d="M0 0 C0.66 0.66 1.32 1.32 2 2 C1.34 2 0.68 2 0 2 C-0.2475 2.556875 -0.495 3.11375 -0.75 3.6875 C-2.56239774 7.04043581 -4.53114492 10.26557246 -8 12 C-8.33 11.01 -8.66 10.02 -9 9 C-6 6 -3 3 0 0 Z " fill="#3F32BE" transform="translate(340,294)"/>
<path d="M0 0 C0.66 0 1.32 0 2 0 C2 0.66 2 1.32 2 2 C2.86625 2.12375 3.7325 2.2475 4.625 2.375 C7.89513853 2.98058121 10.87256899 3.88306035 14 5 C14 5.33 14 5.66 14 6 C8.34605369 6.34615998 4.96993194 5.43425238 0 3 C0 2.01 0 1.02 0 0 Z " fill="#827EC5" transform="translate(342,44)"/>
<path d="M0 0 C2.125 0 2.125 0 5 1 C7.25484692 3.49775783 9.14265083 6.19801963 11 9 C7.22031427 8.22976993 5.52040369 6.97047577 3 4 C3 3.34 3 2.68 3 2 C2.01 2 1.02 2 0 2 C0 1.34 0 0.68 0 0 Z " fill="#453DD3" transform="translate(328,205)"/>
<path d="M0 0 C1.65 0 3.3 0 5 0 C1.15789397 3.60925112 -1.69342668 4.90173012 -7 5 C-7.99 4.01 -8.98 3.02 -10 2 C-7.03 2.33 -4.06 2.66 -1 3 C-0.67 2.01 -0.34 1.02 0 0 Z " fill="#8D82C8" transform="translate(364,171)"/>
<path d="M0 0 C0.33 0.66 0.66 1.32 1 2 C-1.64 5.3 -4.28 8.6 -7 12 C-8.32 11.67 -9.64 11.34 -11 11 C-10.05125 10.2575 -9.1025 9.515 -8.125 8.75 C-5.62121529 6.68012646 -4.33639662 4.98119247 -3 2 C-2.01 1.34 -1.02 0.68 0 0 Z " fill="#7976C8" transform="translate(126,105)"/>
<path d="M0 0 C3 1 3 1 4.1875 3.3125 C5 6 5 6 5 10 C4.01 9.67 3.02 9.34 2 9 C1.26953125 6.93359375 1.26953125 6.93359375 0.8125 4.4375 C0.65394531 3.61121094 0.49539062 2.78492188 0.33203125 1.93359375 C0.16767578 0.97646484 0.16767578 0.97646484 0 0 Z " fill="#8C87BD" transform="translate(81,334)"/>
<path d="M0 0 C0.99 0.33 1.98 0.66 3 1 C3 1.66 3 2.32 3 3 C3.5775 3.268125 4.155 3.53625 4.75 3.8125 C7.0325868 5.01719859 8.9737942 6.40798115 11 8 C10.67 8.66 10.34 9.32 10 10 C9.52949219 9.65066406 9.05898438 9.30132812 8.57421875 8.94140625 C7.95160156 8.48636719 7.32898438 8.03132813 6.6875 7.5625 C6.07261719 7.11003906 5.45773437 6.65757813 4.82421875 6.19140625 C2.90322899 4.82663692 2.90322899 4.82663692 0 4 C0 2.68 0 1.36 0 0 Z " fill="#8C8AC0" transform="translate(411,78)"/>
<path d="M0 0 C0.99 0.33 1.98 0.66 3 1 C-0.3 3.64 -3.6 6.28 -7 9 C-7.33 8.01 -7.66 7.02 -8 6 C-6.7391988 4.96680187 -5.46596742 3.94875621 -4.1875 2.9375 C-3.47980469 2.36902344 -2.77210938 1.80054688 -2.04296875 1.21484375 C-1.36878906 0.81394531 -0.69460938 0.41304687 0 0 Z " fill="#7C74BD" transform="translate(377,162)"/>
<path d="M0 0 C2.93200474 2.85276137 5.64315404 5.65079784 8 9 C7.34 9.66 6.68 10.32 6 11 C3 7.25 3 7.25 3 5 C2.34 5 1.68 5 1 5 C0.67 3.35 0.34 1.7 0 0 Z " fill="#2B27B4" transform="translate(397,368)"/>
<path d="M0 0 C4.83766699 0.41465717 6.85646376 2.4198615 10 6 C10.33 6.66 10.66 7.32 11 8 C10.34 8.66 9.68 9.32 9 10 C9 9.01 9 8.02 9 7 C8.01 6.67 7.02 6.34 6 6 C6 5.34 6 4.68 6 4 C5.01 4 4.02 4 3 4 C1.3125 2 1.3125 2 0 0 Z " fill="#3532D1" transform="translate(386,359)"/>
<path d="M0 0 C-0.33 1.32 -0.66 2.64 -1 4 C-1.99 4 -2.98 4 -4 4 C-4.2475 4.61875 -4.495 5.2375 -4.75 5.875 C-6.20628639 8.35068687 -7.37812506 8.95125002 -10 10 C-9.23286356 8.89326166 -8.46110997 7.78972306 -7.6875 6.6875 C-7.25824219 6.07261719 -6.82898438 5.45773437 -6.38671875 4.82421875 C-2.71948608 0 -2.71948608 0 0 0 Z " fill="#5759E9" transform="translate(187,354)"/>
<path d="M0 0 C5.625 -0.25 5.625 -0.25 9 2 C10.65549531 2.38499891 12.3222433 2.72793135 14 3 C14 3.66 14 4.32 14 5 C11.8520106 4.55187982 9.70663439 4.09121652 7.5625 3.625 C5.77005859 3.24214844 5.77005859 3.24214844 3.94140625 2.8515625 C2.48541016 2.43003906 2.48541016 2.43003906 1 2 C0.67 1.34 0.34 0.68 0 0 Z " fill="#8D8ACC" transform="translate(306,149)"/>
<path d="M0 0 C0.99 0 1.98 0 3 0 C3 0.66 3 1.32 3 2 C4.65 2.33 6.3 2.66 8 3 C8 3.66 8 4.32 8 5 C6.02 5.33 4.04 5.66 2 6 C2 4.68 2 3.36 2 2 C1.34 2 0.68 2 0 2 C0 1.34 0 0.68 0 0 Z " fill="#4A43BB" transform="translate(226,463)"/>
<path d="M0 0 C7.5 0.625 7.5 0.625 12 4 C8.37 3.67 4.74 3.34 1 3 C0.67 2.01 0.34 1.02 0 0 Z " fill="#3F34C6" transform="translate(203,458)"/>
<path d="M0 0 C1.65 0.33 3.3 0.66 5 1 C5 1.66 5 2.32 5 3 C6.32 3.66 7.64 4.32 9 5 C7.375 5.75 7.375 5.75 5 6 C1.75 4.0625 1.75 4.0625 -1 2 C-0.67 1.34 -0.34 0.68 0 0 Z " fill="#352ED3" transform="translate(178,445)"/>
<path d="M0 0 C0.99 0.33 1.98 0.66 3 1 C1.7391988 2.03319813 0.46596742 3.05124379 -0.8125 4.0625 C-1.87404297 4.91521484 -1.87404297 4.91521484 -2.95703125 5.78515625 C-3.63121094 6.18605469 -4.30539062 6.58695312 -5 7 C-5.99 6.67 -6.98 6.34 -8 6 C-3.375 2 -3.375 2 0 2 C0 1.34 0 0.68 0 0 Z " fill="#3B30B9" transform="translate(404,436)"/>
<path d="M0 0 C2.72574271 0.37330824 3.80822085 0.79194601 5.703125 2.84765625 C6.21359375 3.57855469 6.7240625 4.30945313 7.25 5.0625 C8.03117187 6.16271484 8.03117187 6.16271484 8.828125 7.28515625 C9.21484375 7.85105469 9.6015625 8.41695313 10 9 C9.67 9.66 9.34 10.32 9 11 C7.49703315 9.35687553 5.99769719 7.71042916 4.5 6.0625 C3.6646875 5.14597656 2.829375 4.22945313 1.96875 3.28515625 C0 1 0 1 0 0 Z " fill="#8A86D1" transform="translate(117,396)"/>
<path d="M0 0 C2.86207152 1.28299758 5.0245088 2.530636 7 5 C7 5.99 7 6.98 7 8 C6.01 7.67 5.02 7.34 4 7 C4 6.34 4 5.68 4 5 C3.34 5 2.68 5 2 5 C1.34 3.35 0.68 1.7 0 0 Z " fill="#413BD2" transform="translate(230,297)"/>
<path d="M0 0 C0.66 0 1.32 0 2 0 C1.48041715 4.37934119 0.94324258 8.68803391 0 13 C-0.33 13 -0.66 13 -1 13 C-1.02696365 11.20841511 -1.04637917 9.41671527 -1.0625 7.625 C-1.07410156 6.62726563 -1.08570313 5.62953125 -1.09765625 4.6015625 C-1 2 -1 2 0 0 Z " fill="#9085C3" transform="translate(178,227)"/>
<path d="M0 0 C2.79872437 2.52788007 4.45773019 4.20411134 5 8 C3.68 7.67 2.36 7.34 1 7 C0.67 4.69 0.34 2.38 0 0 Z " fill="#2C25B2" transform="translate(345,224)"/>
<path d="M0 0 C0.33 0 0.66 0 1 0 C2.01911045 3.89114901 2.16782969 5.60596507 0.5625 9.375 C0.046875 10.24125 -0.46875 11.1075 -1 12 C-1.33 12 -1.66 12 -2 12 C-2.28571429 3.42857143 -2.28571429 3.42857143 0 0 Z " fill="#8982C5" transform="translate(418,101)"/>
<path d="M0 0 C4.95 0.99 4.95 0.99 10 2 C10 2.99 10 3.98 10 5 C6.33118845 4.29445932 3.29549466 2.72264494 0 1 C0 0.67 0 0.34 0 0 Z " fill="#3B35B5" transform="translate(168,441)"/>
<path d="M0 0 C2.97550031 3.0684847 3.96474513 4.46236331 4.25 8.8125 C4.1675 9.864375 4.085 10.91625 4 12 C0.99801155 8.99801155 0.04007463 7.04194047 -0.125 2.75 C-0.08375 1.8425 -0.0425 0.935 0 0 Z " fill="#352FBD" transform="translate(416,399)"/>
<path d="M0 0 C1.9375 0.5625 1.9375 0.5625 4 2 C4.75 5.625 4.75 5.625 5 9 C4.67 8.01 4.34 7.02 4 6 C1.98491642 5.26676204 1.98491642 5.26676204 0 5 C0 3.35 0 1.7 0 0 Z " fill="#4846DC" transform="translate(404,380)"/>
<path d="M0 0 C1.31611677 0.95336021 2.62778961 1.91285774 3.9375 2.875 C4.66839844 3.40867187 5.39929688 3.94234375 6.15234375 4.4921875 C8 6 8 6 9 8 C5.81390075 7.64598897 4.20933322 7.16972964 1.6875 5.125 C0 3 0 3 0 0 Z " fill="#342FBD" transform="translate(372,343)"/>
<path d="M0 0 C0.33 0 0.66 0 1 0 C1.33 2.97 1.66 5.94 2 9 C0.68 9 -0.64 9 -2 9 C-1.34 6.03 -0.68 3.06 0 0 Z " fill="#6E6BBF" transform="translate(70,211)"/>
<path d="M0 0 C0.66 0.99 1.32 1.98 2 3 C-0.97180943 4.89865603 -3.51460083 6.35455571 -7 7 C-5.54744301 3.17053157 -3.57104439 1.87949705 0 0 Z " fill="#7874D2" transform="translate(153,81)"/>
<path d="M0 0 C6.93 0 13.86 0 21 0 C21 0.33 21 0.66 21 1 C14.07 1 7.14 1 0 1 C0 0.67 0 0.34 0 0 Z " fill="#0000EA" transform="translate(274,362)"/>
<path d="M0 0 C0.33 0 0.66 0 1 0 C1.95261487 4.76307437 2.08333357 9.1666528 2 14 C-0.63548461 11.36451539 -0.64649512 9.67645078 -1 6 C-0.5625 2.625 -0.5625 2.625 0 0 Z " fill="#231EA5" transform="translate(217,265)"/>
<path d="M0 0 C0.33 0 0.66 0 1 0 C1.3125 2.25 1.3125 2.25 1 5 C-1.5 7.3125 -1.5 7.3125 -4 9 C-4.66 8.67 -5.32 8.34 -6 8 C-5.02471263 6.66382648 -4.04466681 5.3311249 -3.0625 4 C-2.24458984 2.88625 -2.24458984 2.88625 -1.41015625 1.75 C-0.94480469 1.1725 -0.47945313 0.595 0 0 Z " fill="#7E7DCE" transform="translate(98,142)"/>
<path d="M0 0 C3.3 1.65 6.6 3.3 10 5 C6.06329512 6.31223496 3.87511856 5.24296256 0 4 C0 2.68 0 1.36 0 0 Z " fill="#7873CD" transform="translate(365,52)"/>
<path d="M0 0 C2.97 1.65 5.94 3.3 9 5 C6 6 6 6 2.8125 4.5625 C1.884375 4.046875 0.95625 3.53125 0 3 C0 2.01 0 1.02 0 0 Z " fill="#493BD7" transform="translate(164,436)"/>
<path d="M0 0 C0.66 0.99 1.32 1.98 2 3 C1.34 3 0.68 3 0 3 C0 3.66 0 4.32 0 5 C-3.465 6.485 -3.465 6.485 -7 8 C-5.60746468 4.51866169 -4.36823784 3.52113967 -1 2 C-0.67 1.34 -0.34 0.68 0 0 Z " fill="#382FB1" transform="translate(351,339)"/>
<path d="M0 0 C0.99 0 1.98 0 3 0 C3.33 2.97 3.66 5.94 4 9 C3.34 9 2.68 9 2 9 C1.34 6.03 0.68 3.06 0 0 Z " fill="#6666A8" transform="translate(68,292)"/>
<path d="M0 0 C0.99 0.495 0.99 0.495 2 1 C2.33 1.99 2.66 2.98 3 4 C3.99 4.66 4.98 5.32 6 6 C4.02 6.99 4.02 6.99 2 8 C-0.1519437 4.77208445 -0.20086443 3.71599191 0 0 Z " fill="#403CDD" transform="translate(226,289)"/>
<path d="M0 0 C1.32 0 2.64 0 4 0 C3.1875 2.9375 3.1875 2.9375 2 6 C1.01 6.33 0.02 6.66 -1 7 C-0.67 4.69 -0.34 2.38 0 0 Z " fill="#9898D9" transform="translate(411,114)"/>
<path d="M0 0 C0.33 0.66 0.66 1.32 1 2 C-5.625 3.25 -5.625 3.25 -9 1 C-6.04335481 -0.4783226 -3.25770263 -0.06032783 0 0 Z " fill="#2725A3" transform="translate(274,472)"/>
<path d="M0 0 C2.16874252 0.50603992 3.99967627 0.99983813 6 2 C6.625 4.0625 6.625 4.0625 7 6 C6.34 6 5.68 6 5 6 C5 5.34 5 4.68 5 4 C4.360625 3.896875 3.72125 3.79375 3.0625 3.6875 C2.381875 3.460625 1.70125 3.23375 1 3 C0.67 2.01 0.34 1.02 0 0 Z " fill="#3D3ADF" transform="translate(218,342)"/>
<path d="M0 0 C3.33388318 0.16951948 4.94441987 0.43192871 7.6875 2.1875 C-0.88392857 3.61607143 -0.88392857 3.61607143 -4.3125 1.1875 C-3.3125 0.1875 -3.3125 0.1875 0 0 Z " fill="#1D118B" transform="translate(289.3125,185.8125)"/>
<path d="M0 0 C-2 3 -2 3 -5.125 3.6875 C-6.07375 3.790625 -7.0225 3.89375 -8 4 C-8 3.01 -8 2.02 -8 1 C-5.07175348 0.02391783 -3.04386724 -0.08226668 0 0 Z " fill="#A69CE2" transform="translate(179,67)"/>
<path d="M0 0 C4.67692308 1.47692308 4.67692308 1.47692308 6.3125 4.125 C6.539375 4.74375 6.76625 5.3625 7 6 C6.01 6 5.02 6 4 6 C1.8125 3 1.8125 3 0 0 Z " fill="#7875D9" transform="translate(127,407)"/>
<path d="M0 0 C2.96175123 0.61277612 4.38058783 1.25372522 7 3 C7 3.66 7 4.32 7 5 C6.01 5 5.02 5 4 5 C4 4.34 4 3.68 4 3 C2.68 2.67 1.36 2.34 0 2 C0 1.34 0 0.68 0 0 Z " fill="#413EDD" transform="translate(235,352)"/>
<path d="M0 0 C1.00000429 4.00001715 0.80688405 6.05523353 0 10 C-0.99 9.67 -1.98 9.34 -3 9 C-2.01 6.03 -1.02 3.06 0 0 Z " fill="#1D1ADF" transform="translate(219,231)"/>
<path d="M0 0 C-2.93828597 2.50298434 -5.17902761 3.46930939 -9 4 C-9 3.34 -9 2.68 -9 2 C-5.86501708 0.14223235 -3.62528568 -0.20140476 0 0 Z " fill="#503AC1" transform="translate(365,458)"/>
<path d="M0 0 C2.76223278 2.76223278 2.57856291 5.20706617 3 9 C-0.875 4.25 -0.875 4.25 -2 2 C-1.34 2 -0.68 2 0 2 C0 1.34 0 0.68 0 0 Z " fill="#8474BF" transform="translate(93,357)"/>
<path d="M0 0 C0.78375 0.04125 1.5675 0.0825 2.375 0.125 C2.375 0.785 2.375 1.445 2.375 2.125 C0.725 2.785 -0.925 3.445 -2.625 4.125 C-3.285 3.465 -3.945 2.805 -4.625 2.125 C-2.625 0.125 -2.625 0.125 0 0 Z " fill="#2521B6" transform="translate(317.625,314.875)"/>
<path d="M0 0 C1.98 0 3.96 0 6 0 C6 0.33 6 0.66 6 1 C4.02 1 2.04 1 0 1 C0 0.67 0 0.34 0 0 Z " fill="#000000" transform="translate(287,149)"/>
<path d="M0 0 C4 1 4 1 4 1 Z " fill="#00007F" transform="translate(297,361)"/>
<path d="M0 0 C4 1 4 1 4 1 Z " fill="#00007F" transform="translate(277,149)"/>
<path d="M0 0 C2 1 2 1 2 1 Z " fill="#00007F" transform="translate(232,469)"/>
<path d="M0 0 C2 1 2 1 2 1 Z " fill="#00007F" transform="translate(206,461)"/>
<path d="M0 0 C2 1 2 1 2 1 Z " fill="#000000" transform="translate(363,460)"/>
<path d="" fill="#00007F" transform="translate(0,0)"/>
<path d="" fill="#0000FF" transform="translate(0,0)"/>
<path d="M0 0 C2 1 2 1 2 1 Z " fill="#0000FF" transform="translate(324,354)"/>
<path d="" fill="#000000" transform="translate(0,0)"/>
<path d="" fill="#00007F" transform="translate(0,0)"/>
<path d="" fill="#0000FF" transform="translate(0,0)"/>
<path d="" fill="#000000" transform="translate(0,0)"/>
<path d="M0 0 C2 1 2 1 2 1 Z " fill="#0000FF" transform="translate(228,43)"/>
<path d="M0 0 C2 1 2 1 2 1 Z " fill="#000000" transform="translate(231,42)"/>
<path d="" fill="#0000FF" transform="translate(0,0)"/>
<path d="" fill="#000000" transform="translate(0,0)"/>
<path d="" fill="#000000" transform="translate(0,0)"/>
<path d="" fill="#000000" transform="translate(0,0)"/>
<path d="" fill="#000000" transform="translate(0,0)"/>
<path d="" fill="#000000" transform="translate(0,0)"/>
<path d="" fill="#000000" transform="translate(0,0)"/>
<path d="" fill="#0000FF" transform="translate(0,0)"/>
<path d="" fill="#0000FF" transform="translate(0,0)"/>
<path d="" fill="#0000FF" transform="translate(0,0)"/>
<path d="" fill="#000000" transform="translate(0,0)"/>
<path d="" fill="#000000" transform="translate(0,0)"/>
<path d="" fill="#000000" transform="translate(0,0)"/>
<path d="" fill="#000000" transform="translate(0,0)"/>
<path d="" fill="#000000" transform="translate(0,0)"/>
<path d="" fill="#000000" transform="translate(0,0)"/>
<path d="" fill="#000000" transform="translate(0,0)"/>
<path d="" fill="#000000" transform="translate(0,0)"/>
<path d="" fill="#000000" transform="translate(0,0)"/>
<path d="" fill="#000000" transform="translate(0,0)"/>
<path d="" fill="#000000" transform="translate(0,0)"/>
<path d="" fill="#000000" transform="translate(0,0)"/>
<path d="" fill="#000000" transform="translate(0,0)"/>
<path d="" fill="#000000" transform="translate(0,0)"/>
</svg>
